<?xml version="1.0" encoding="UTF-8" standalone="no"?>
<svg width="18px" height="25px" viewBox="0 0 18 25" version="1.1" xmlns="http://www.w3.org/2000/svg" xmlns:xlink="http://www.w3.org/1999/xlink" xmlns:sketch="http://www.bohemiancoding.com/sketch/ns">
    <!-- Generator: Sketch 3.4.4 (17249) - http://www.bohemiancoding.com/sketch -->
    <title>pin copy 7</title>
    <desc>Created with Sketch.</desc>
    <defs>
        <path id="path-1" d="M0,0.100675676 L17.892,0.100675676 L17.892,25 L0,25"></path>
    </defs>
    <g id="Wireform-/-Mockup" stroke="none" stroke-width="1" fill="none" fill-rule="evenodd" sketch:type="MSPage">
        <g id="Search-Page-/-Map-Popup" sketch:type="MSArtboardGroup" transform="translate(-669.000000, -606.000000)">
            <g id="Map" sketch:type="MSLayerGroup" transform="translate(0.000000, 135.000000)">
                <g id="G-Maps" transform="translate(0.000000, -20.000000)">
                    <g id="Pins" transform="translate(436.000000, 380.000000)">
                        <g id="pin-copy-7" transform="translate(233.000000, 111.000000)">
                            <mask id="mask-2" sketch:name="Clip 2" fill="white">
                                <use xlink:href="#path-1"></use>
                            </mask>
                            <g id="Clip-2"></g>
                            <path d="M8.94598349,4.69444257 C7.0090844,4.69444257 5.43895596,6.30052365 5.43895596,8.28177365 C5.43895596,10.2630236 7.0090844,11.8692736 8.94598349,11.8692736 C10.8828826,11.8692736 12.453011,10.2630236 12.453011,8.28177365 C12.453011,6.30052365 10.8828826,4.69444257 8.94598349,4.69444257 M16.638589,13.3234966 L8.95407523,25.0000169 L1.27484587,13.3545777 C0.440075229,11.9984966 -1.65137608e-05,10.4410642 -1.65137608e-05,8.85238176 C-1.65137608e-05,4.02636824 4.0131578,0.100523649 8.94598349,0.100523649 C13.8788092,0.100523649 17.8919835,4.02721284 17.8919835,8.85238176 C17.8928092,10.4400507 17.4527174,11.9947804 16.638589,13.3234966" id="Fill-1" fill="#D8523D" sketch:type="MSShapeGroup" mask="url(#mask-2)"></path>
                        </g>
                    </g>
                </g>
            </g>
        </g>
    </g>
</svg>