<svg style="position: absolute; width: 0; height: 0;" width="0" height="0" version="1.1" xmlns="http://www.w3.org/2000/svg" xmlns:xlink="http://www.w3.org/1999/xlink">
<defs>
<symbol id="icon-eye" viewBox="0 0 1024 1024">
	<title>eye</title>
	<path class="path1" d="M512 128q69.667 0 135.5 21.167t115.5 55 93.5 74.833 73.667 82 51.667 74.833 32.167 54.833l10 21.333q-2.333 5-6.333 13.5t-18.833 34.667-31.667 51.667-44.333 60-56.833 64.333-69.5 60.167-82.333 51.5-94.833 34.667-107.333 13.5q-69.667 0-135.5-21.167t-115.5-54.833-93.5-74.333-73.667-81.5-51.667-74.5-32.167-55l-10-21q2.333-5 6.333-13.5t18.833-34.833 31.667-51.833 44.333-60.333 56.833-64.667 69.5-60.333 82.333-51.833 94.833-34.833 107.333-13.5zM512 213.333q-46.667 0-91.667 12.333t-81.167 31.833-70.667 47.167-59.667 54.5-48.833 57.667-37.667 52.833-26.333 44q12.333 21.667 26.333 43.5t37.667 52.333 48.833 57 59.667 53.833 70.667 46.667 81.167 31.5 91.667 12.167 91.667-12.333 81.167-31.667 70.667-46.833 59.667-54.167 48.833-57.333 37.667-52.667 26.333-43.667q-12.333-21.667-26.333-43.667t-37.667-52.667-48.833-57.333-59.667-54.167-70.667-46.833-81.167-31.667-91.667-12.333zM512 341.333q70.667 0 120.667 50t50 120.667-50 120.667-120.667 50-120.667-50-50-120.667 50-120.667 120.667-50zM512 426.667q-35.333 0-60.333 25t-25 60.333 25 60.333 60.333 25 60.333-25 25-60.333-25-60.333-60.333-25z"></path>
</symbol>
<symbol id="icon-paper-clip" viewBox="0 0 1024 1024">
	<title>paper-clip</title>
	<path class="path1" d="M674 0q41.667 0 80 15.667 40 16 70.667 46.667 31 31.333 46.667 70.333 15.333 37.667 15.333 80t-15.333 80q-15.667 39-46.667 70.333l-392.667 392.667q-18 18-42.667 28.333-24 9.333-48 9.333t-48-9.333q-24.667-10.333-42.667-28.333-18.667-18.667-28-42.333-9.333-22.667-9.333-48 0-25.667 9.333-48.333 9.333-23.333 28-42.333l362.333-362q12.667-12.667 30.333-12.667 17.333 0 30 12.667t12.667 30q0 17.667-12.667 30.333l-362.333 362q-12.333 12.333-12.333 30.333 0 17.667 12.333 30 13.333 12.667 30.333 12.667t30.333-12.667l392.667-392.667q37-37 37-90t-37-90q-38-37.333-90.333-37.333-52.667 0-90 37.333l-393.667 391.667q-30.667 30.667-46.667 70.667-15.667 38.333-15.667 80.333 0 41.333 15.667 80.333 16 39.667 46.667 70.333 31.667 31.333 70.667 47t80.333 15.667 80.333-15.667 70.667-47l392-392q12.667-12.667 30.333-12.667 17.333 0 30 12.667t12.667 30q0 17.667-12.667 30.333l-392 392q-43 43-99 65.667-53.333 22-112.333 22-58.667 0-112.333-22-56-22.667-99-65.667-42.667-42.667-65.333-98.667-22-54-22-112.333 0-58.667 22-112.333 22.333-55.333 65.333-99h0.333l393.333-391.667q30.667-30.667 70.333-46.667 39-15.667 80-15.667z"></path>
</symbol>
<symbol id="icon-mail" viewBox="0 0 1024 1024">
	<title>mail</title>
	<path class="path1" d="M170.667 128h682.667q53 0 90.5 37.5t37.5 90.5v512q0 53-37.5 90.5t-90.5 37.5h-682.667q-53 0-90.5-37.5t-37.5-90.5v-512q0-53 37.5-90.5t90.5-37.5zM896 768v-466l-357.333 286q-11.333 9.333-26.667 9.333t-26.667-9.333l-357.333-286v466q0 17.667 12.5 30.167t30.167 12.5h682.667q17.667 0 30.167-12.5t12.5-30.167zM853.333 213.333h-682.667q-6.333 0-14 2.333l355.333 284.333 355.333-284.333q-7.667-2.333-14-2.333z"></path>
</symbol>
<symbol id="icon-clipboard" viewBox="0 0 1024 1024">
	<title>clipboard</title>
	<path class="path1" d="M426.667 42.667h170.667q41.333 0 74.333 23.833t46.333 61.5h50q53 0 90.5 37.5t37.5 90.5v597.333q0 53-37.5 90.5t-90.5 37.5h-512q-53 0-90.5-37.5t-37.5-90.5v-597.333q0-53 37.5-90.5t90.5-37.5h50q13.333-37.667 46.333-61.5t74.333-23.833zM768 213.333h-50q-13.333 37.667-46.333 61.5t-74.333 23.833h-170.667q-41.333 0-74.333-23.833t-46.333-61.5h-50q-17.667 0-30.167 12.5t-12.5 30.167v597.333q0 17.667 12.5 30.167t30.167 12.5h512q17.667 0 30.167-12.5t12.5-30.167v-597.333q0-17.667-12.5-30.167t-30.167-12.5zM597.333 128h-170.667q-17.667 0-30.167 12.5t-12.5 30.167 12.5 30.167 30.167 12.5h170.667q17.667 0 30.167-12.5t12.5-30.167-12.5-30.167-30.167-12.5z"></path>
</symbol>
<symbol id="icon-camera" viewBox="0 0 1024 1024">
	<title>camera</title>
	<path class="path1" d="M341.333 85.333h341.333l85.333 128h128q53 0 90.5 38.167t37.5 91.167v468.667q0 53-37.5 90.167t-90.5 37.167h-768q-53 0-90.5-37.5t-37.5-90.5v-468.667q0-53 37.5-90.833t90.5-37.833h128zM512 341.333q43.333 0 82.833 17t68 45.5 45.5 68 17 82.833-17 82.833-45.5 68-68 45.5-82.833 17-82.833-17-68-45.5-45.5-68-17-82.833 17-82.833 45.5-68 68-45.5 82.833-17zM512 426.667q-53 0-90.5 37.5t-37.5 90.5 37.5 90.5 90.5 37.5 90.5-37.5 37.5-90.5-37.5-90.5-90.5-37.5zM722.333 298.667l-83.667-128h-251.667l-85.333 128h-173.667q-17.667 0-30.167 12.667t-12.5 30.667v468.667q0 17.667 12.5 30.167t30.167 12.5h768q18 0 30.333-12.167t12.333-29.833v-468.667q0-18-12.667-31t-30-13h-173.667z"></path>
</symbol>
<symbol id="icon-cog" viewBox="0 0 1024 1024">
	<title>cog</title>
	<path class="path1" d="M512 0q53 0 90.5 37.5t37.5 90.5v22q15.667 5.333 37.667 15.333l15.333-15.333q37.667-37.667 90.667-37.667 52.667 0 90.333 37.667t37.667 90.333q0 53-37.667 90.667l-15.333 15.333q10 22 15.333 37.667h22q53 0 90.5 37.5t37.5 90.5-37.5 90.5-90.5 37.5h-22q-5.333 15.667-15.333 37.667l15.333 15.333q37.667 37.667 37.667 90.667 0 52.667-37.667 90.333t-90.333 37.667q-53 0-90.667-37.667l-15.333-15.333q-22 10-37.667 15.333v22q0 53-37.5 90.5t-90.5 37.5-90.5-37.5-37.5-90.5v-22q-15.667-5.333-37.667-15.333l-15.333 15.333q-37.667 37.667-90.333 37.667-53 0-90.5-37.667t-37.5-90.333q0-53.333 37.333-90.667l15.333-15.333q-10-22-15.333-37.667h-22q-53 0-90.5-37.5t-37.5-90.5 37.5-90.5 90.5-37.5h22q5.333-15.667 15.333-37.667l-15.333-15.333q-37.333-37.333-37.333-90.667 0-52.667 37.5-90.333t90.5-37.667q52.667 0 90.333 37.667l15.333 15.333q22-10 37.667-15.333v-22q0-53 37.5-90.5t90.5-37.5zM512 85.333q-17.667 0-30.167 12.5t-12.5 30.167v88.333q-74.667 10.667-136.333 56.333l-62.333-62.333q-12.667-12.667-30-12.667-17.667 0-30.167 12.5t-12.5 30.167q0 18 12.333 30.333l62.333 62.333q-45.667 61.667-56.333 136.333h-88.333q-17.667 0-30.167 12.5t-12.5 30.167 12.5 30.167 30.167 12.5h88.333q10.667 74.667 56.333 136.333l-62.333 62.333q-12.333 12.333-12.333 30.333 0 17.667 12.5 30.167t30.167 12.5q17.333 0 30-12.667l62.333-62.333q61.667 45.667 136.333 56.333v88.333q0 17.667 12.5 30.167t30.167 12.5 30.167-12.5 12.5-30.167v-88.333q74.667-10.667 136.333-56.333l62.333 62.333q12.667 12.667 30.333 12.667t30.167-12.5 12.5-30.167-12.667-30.333l-62.333-62.333q45.667-61.667 56.333-136.333h88.333q17.667 0 30.167-12.5t12.5-30.167-12.5-30.167-30.167-12.5h-88.333q-10.667-74.667-56.333-136.333l62.333-62.333q12.667-12.667 12.667-30.333t-12.5-30.167-30.167-12.5-30.333 12.667l-62.333 62.333q-61.667-45.667-136.333-56.333v-88.333q0-17.667-12.5-30.167t-30.167-12.5zM512 341.333q70.667 0 120.667 50t50 120.667-50 120.667-120.667 50-120.667-50-50-120.667 50-120.667 120.667-50zM512 426.667q-35.333 0-60.333 25t-25 60.333 25 60.333 60.333 25 60.333-25 25-60.333-25-60.333-60.333-25z"></path>
</symbol>
<symbol id="icon-heart" viewBox="0 0 1024 1024">
	<title>heart</title>
	<path class="path1" d="M753.333 85.333q69.667 0 128.5 34.333t93.167 93.167 34.333 128.5q0 50-19.167 97.167t-55.833 83.833l-422.333 422.333-422.333-422.333q-36.667-36.667-55.833-83.833t-19.167-97.167q0-69.667 34.333-128.5t93.167-93.167 128.5-34.333q50.333 0 97.167 19t83.833 56l60.333 60.333 60.333-60.333q36.667-36.667 83.833-55.833t97.167-19.167zM753.333 170.667q-33.333 0-64.667 12.667t-56 37.333l-120.667 120.667-120.667-120.667q-24.667-24.667-56-37.333t-64.667-12.667q-46.667 0-85.833 22.833t-62 62-22.833 85.833q0 33.333 12.667 64.667t37.333 56l362 362 362-362q24.667-24.667 37.333-56t12.667-64.667q0-46.667-22.833-85.833t-62-62-85.833-22.833z"></path>
</symbol>
<symbol id="icon-align-justify" viewBox="0 0 1024 1024">
	<title>align-justify</title>
	<path class="path1" d="M128 213.333h768q17.667 0 30.167 12.5t12.5 30.167-12.5 30.167-30.167 12.5h-768q-17.667 0-30.167-12.5t-12.5-30.167 12.5-30.167 30.167-12.5zM128 725.333h768q17.667 0 30.167 12.5t12.5 30.167-12.5 30.167-30.167 12.5h-768q-17.667 0-30.167-12.5t-12.5-30.167 12.5-30.167 30.167-12.5zM128 554.667h768q17.667 0 30.167 12.5t12.5 30.167-12.5 30.167-30.167 12.5h-768q-17.667 0-30.167-12.5t-12.5-30.167 12.5-30.167 30.167-12.5zM128 384h768q17.667 0 30.167 12.5t12.5 30.167-12.5 30.167-30.167 12.5h-768q-17.667 0-30.167-12.5t-12.5-30.167 12.5-30.167 30.167-12.5z"></path>
</symbol>
<symbol id="icon-search" viewBox="0 0 1024 1024">
	<title>search</title>
	<path class="path1" d="M426.667 42.667q78 0 149.167 30.5t122.5 81.833 81.833 122.5 30.5 149.167q0 67-21.833 128.333t-62.167 111.333l242.333 242q12.333 12.333 12.333 30.333 0 18.333-12.167 30.5t-30.5 12.167q-18 0-30.333-12.333l-242-242.333q-50 40.333-111.333 62.167t-128.333 21.833q-78 0-149.167-30.5t-122.5-81.833-81.833-122.5-30.5-149.167 30.5-149.167 81.833-122.5 122.5-81.833 149.167-30.5zM426.667 128q-60.667 0-116 23.667t-95.333 63.667-63.667 95.333-23.667 116 23.667 116 63.667 95.333 95.333 63.667 116 23.667 116-23.667 95.333-63.667 63.667-95.333 23.667-116-23.667-116-63.667-95.333-95.333-63.667-116-23.667z"></path>
</symbol>
<symbol id="icon-zoom-in" viewBox="0 0 1024 1024">
	<title>zoom-in</title>
	<path class="path1" d="M426.667 42.667q78 0 149.167 30.5t122.5 81.833 81.833 122.5 30.5 149.167q0 67-21.833 128.333t-62.167 111.333l242.333 242q12.333 12.333 12.333 30.333 0 18.333-12.167 30.5t-30.5 12.167q-18 0-30.333-12.333l-242-242.333q-50 40.333-111.333 62.167t-128.333 21.833q-78 0-149.167-30.5t-122.5-81.833-81.833-122.5-30.5-149.167 30.5-149.167 81.833-122.5 122.5-81.833 149.167-30.5zM426.667 128q-60.667 0-116 23.667t-95.333 63.667-63.667 95.333-23.667 116 23.667 116 63.667 95.333 95.333 63.667 116 23.667 116-23.667 95.333-63.667 63.667-95.333 23.667-116-23.667-116-63.667-95.333-95.333-63.667-116-23.667zM426.667 256q17.667 0 30.167 12.5t12.5 30.167v85.333h85.333q17.667 0 30.167 12.5t12.5 30.167-12.5 30.167-30.167 12.5h-85.333v85.333q0 17.667-12.5 30.167t-30.167 12.5-30.167-12.5-12.5-30.167v-85.333h-85.333q-17.667 0-30.167-12.5t-12.5-30.167 12.5-30.167 30.167-12.5h85.333v-85.333q0-17.667 12.5-30.167t30.167-12.5z"></path>
</symbol>
<symbol id="icon-zoom-out" viewBox="0 0 1024 1024">
	<title>zoom-out</title>
	<path class="path1" d="M426.667 42.667q78 0 149.167 30.5t122.5 81.833 81.833 122.5 30.5 149.167q0 67-21.833 128.333t-62.167 111.333l242.333 242q12.333 12.333 12.333 30.333 0 18.333-12.167 30.5t-30.5 12.167q-18 0-30.333-12.333l-242-242.333q-50 40.333-111.333 62.167t-128.333 21.833q-78 0-149.167-30.5t-122.5-81.833-81.833-122.5-30.5-149.167 30.5-149.167 81.833-122.5 122.5-81.833 149.167-30.5zM426.667 128q-60.667 0-116 23.667t-95.333 63.667-63.667 95.333-23.667 116 23.667 116 63.667 95.333 95.333 63.667 116 23.667 116-23.667 95.333-63.667 63.667-95.333 23.667-116-23.667-116-63.667-95.333-95.333-63.667-116-23.667zM298.667 384h256q17.667 0 30.167 12.5t12.5 30.167-12.5 30.167-30.167 12.5h-256q-17.667 0-30.167-12.5t-12.5-30.167 12.5-30.167 30.167-12.5z"></path>
</symbol>
<symbol id="icon-folder" viewBox="0 0 1024 1024">
	<title>folder</title>
	<path class="path1" d="M170.667 85.333h213.333l85.333 128h384q53 0 90.5 37.5t37.5 90.5v469.333q0 53-37.5 90.5t-90.5 37.5h-682.667q-53 0-90.5-37.5t-37.5-90.5v-597.333q0-53 37.5-90.5t90.5-37.5zM423.667 298.667l-82.333-128h-170.667q-17.667 0-30.167 12.5t-12.5 30.167v597.333q0 17.667 12.5 30.167t30.167 12.5h682.667q17.667 0 30.167-12.5t12.5-30.167v-469.333q0-17.667-12.5-30.167t-30.167-12.5h-429.667z"></path>
</symbol>
<symbol id="icon-sun" viewBox="0 0 1024 1024">
	<title>sun</title>
	<path class="path1" d="M512 256q69.667 0 128.5 34.333t93.167 93.167 34.333 128.5-34.333 128.5-93.167 93.167-128.5 34.333-128.5-34.333-93.167-93.167-34.333-128.5 34.333-128.5 93.167-93.167 128.5-34.333zM240.667 740.667q17.667 0 30.167 12.667t12.5 30.333q0 17.333-12.667 30l-60.333 60.333q-12.667 12.667-30 12.667-17.667 0-30.167-12.5t-12.5-30.167q0-18 12.333-30.333l60.333-60.333q12.667-12.667 30.333-12.667zM512 853.333q17.667 0 30.167 12.5t12.5 30.167v85.333q0 17.667-12.5 30.167t-30.167 12.5-30.167-12.5-12.5-30.167v-85.333q0-17.667 12.5-30.167t30.167-12.5zM42.667 469.333h85.333q17.667 0 30.167 12.5t12.5 30.167-12.5 30.167-30.167 12.5h-85.333q-17.667 0-30.167-12.5t-12.5-30.167 12.5-30.167 30.167-12.5zM512 341.333q-70.667 0-120.667 50t-50 120.667 50 120.667 120.667 50 120.667-50 50-120.667-50-120.667-120.667-50zM783.667 740.667q17.333 0 30 12.667l60.333 60.333q12.667 12.667 12.667 30.333 0 17.333-12.667 30t-30 12.667q-17.667 0-30.333-12.667l-60.333-60.333q-12.333-12.333-12.333-30t12.5-30.333 30.167-12.667zM180.333 137.333q17.333 0 30 12.667l60.333 60.333q12.667 12.667 12.667 30 0 17.667-12.5 30.167t-30.167 12.5q-18 0-30.333-12.333l-60.333-60.333q-12.333-12.333-12.333-30.333 0-17.667 12.5-30.167t30.167-12.5zM512 0q17.667 0 30.167 12.5t12.5 30.167v85.333q0 17.667-12.5 30.167t-30.167 12.5-30.167-12.5-12.5-30.167v-85.333q0-17.667 12.5-30.167t30.167-12.5zM896 469.333h85.333q17.667 0 30.167 12.5t12.5 30.167-12.5 30.167-30.167 12.5h-85.333q-17.667 0-30.167-12.5t-12.5-30.167 12.5-30.167 30.167-12.5zM844 137.333q17.333 0 30 12.667t12.667 30q0 17.667-12.667 30.333l-60.333 60.333q-12.333 12.333-30 12.333-18.333 0-30.5-12.167t-12.167-30.5q0-17.667 12.333-30l60.333-60.333q12.667-12.667 30.333-12.667z"></path>
</symbol>
<symbol id="icon-location" viewBox="0 0 1024 1024">
	<title>location</title>
	<path class="path1" d="M0 469.333l1024-469.333-469.333 1024-128-426.667zM571.333 782.667l279.333-609.333-609.333 279.333 254 76z"></path>
</symbol>
<symbol id="icon-map" viewBox="0 0 1024 1024">
	<title>map</title>
	<path class="path1" d="M682.667 213.333l341.333-213.333v810.667l-341.333 213.333-341.333-213.333-341.333 213.333v-810.667l341.333-213.333zM298.667 736.667v-609l-213.333 133.333v609zM640 287.333l-256-160.333v609.667l256 160v-609.333zM938.667 763.333v-609.333l-213.333 133.333v609.333z"></path>
</symbol>
<symbol id="icon-head" viewBox="0 0 1024 1024">
	<title>head</title>
	<path class="path1" d="M512 0q69.667 0 128.5 34.333t93.167 93.167 34.333 128.5v128q0 53.333-20.667 101t-57.667 83q97.333 15.333 173 45.167t118.5 70.5 42.833 85.667v84q0 53-37.5 90.5t-90.5 37.5h-768q-53 0-90.5-37.5t-37.5-90.5v-84.333q0-45 42.833-85.667t118.333-70.5 172.833-44.833q-36.667-35.667-57.333-83.167t-20.667-100.833v-128q0-69.667 34.333-128.5t93.167-93.167 128.5-34.333zM512 640q-92.667 0-178.833 14.833t-150.167 41.5q-25.667 10.667-45.833 22.667t-30.667 21.667-15.833 16.833-5.333 11.5v84.333q0 17.667 12.5 30.167t30.167 12.5h768q17.667 0 30.167-12.5t12.5-30.167v-84q0-4.333-5.333-11.5t-15.833-16.833-30.667-21.667-45.833-23q-64-26.667-150.167-41.5t-178.833-14.833zM512 85.333q-70.667 0-120.667 50t-50 120.667v128q0 70.667 50 120.667t120.667 50 120.667-50 50-120.667v-128q0-70.667-50-120.667t-120.667-50z"></path>
</symbol>
<symbol id="icon-globe" viewBox="0 0 1024 1024">
	<title>globe</title>
	<path class="path1" d="M512 42.667q12 0 18 0.333 62 2.333 120.5 20.5t108.167 48.833 91.167 73.833 70.333 93.833 45 110.167 16.167 121.833-16.167 121.833-45 110.167-70.333 93.833-91.167 73.833-108.167 48.833-120.5 20.5q-6 0.333-18 0.333t-18-0.333q-62-2.333-120.5-20.5t-108.167-48.833-91.167-73.833-70.333-93.833-45-110.167-16.167-121.833 16.167-121.833 45-110.167 70.333-93.833 91.167-73.833 108.167-48.833 120.5-20.5q6-0.333 18-0.333zM300.333 554.667h-170q13.333 119 91.667 209t192.667 120q-43.333-65.667-75.5-148.833t-38.833-180.167zM638.333 554.667h-252.667q3.333 42.667 13.833 85.333t23.5 75.5 30 64.833 30.667 52.667 28.333 39.667q14.667-19 28.333-39.833t30.667-52.833 30-64.833 23.5-75.333 13.833-85.167zM414.667 140.333q-114.333 30-192.667 120t-91.667 209h170q11.667-174 114.333-329zM893.667 554.667h-169.667q-12.333 174.333-114.667 329 114.333-30 192.667-120t91.667-209zM512 151.333q-14.667 19-28.167 39.833t-30.667 52.833-30.167 64.833-23.5 75.333-13.833 85.167h252.667q-3.333-42.667-13.833-85.333t-23.5-75.5-30-64.833-30.667-52.667-28.333-39.667zM609.333 140.333q102.333 154.667 114.667 329h169.667q-13.333-119-91.667-209t-192.667-120z"></path>
</symbol>
<symbol id="icon-tag" viewBox="0 0 1024 1024">
	<title>tag</title>
	<path class="path1" d="M42.667 42.667h482.667l418.667 418.333q37.333 37.333 37.333 90.333 0 53.333-37.333 90.667l-302 302q-37.333 37.333-90.333 37.333-53.333 0-90.667-37.333l-418.333-418.667v-482.667zM883.667 521.333l-393.667-393.333h-362v362l393.333 393.667q12.667 12.333 30.333 12.333t30-12.333l302-302q12.333-12.333 12.333-30t-12.333-30.333zM362.667 256q44.333 0 75.5 31.167t31.167 75.5-31.167 75.5-75.5 31.167-75.5-31.167-31.167-75.5 31.167-75.5 75.5-31.167zM362.667 341.333q-8.667 0-15 6.333t-6.333 15 6.333 15 15 6.333 15-6.333 6.333-15-6.333-15-15-6.333z"></path>
</symbol>
<symbol id="icon-maximize" viewBox="0 0 1024 1024">
	<title>maximize</title>
	<path class="path1" d="M597.333 554.333q17.667 0 30.333 12.667l268.333 268.333v-195.667q0-17.667 12.5-30.167t30.167-12.5 30.167 12.5 12.5 30.167v298.667q0 17.667-12.667 30.333t-30.333 12.667h-298.667q-17.667 0-30.167-12.5t-12.5-30.167 12.5-30.167 30.167-12.5h195.667l-268.333-268.333q-12.333-13-12.333-30.333 0-17.667 12.5-30.333t30.167-12.667zM85.333 42.667h298.667q17.667 0 30.167 12.5t12.5 30.167-12.5 30.167-30.167 12.5h-195.667l268.333 268q12.667 12.667 12.667 30.333t-12.667 30.167-30.333 12.5q-17 0-30.333-12.333l-268-268.333v195.667q0 17.667-12.5 30.167t-30.167 12.5-30.167-12.5-12.5-30.167v-298.667q0-17.667 12.5-30.167t30.167-12.5z"></path>
</symbol>
<symbol id="icon-plus" viewBox="0 0 1024 1024">
	<title>plus</title>
	<path class="path1" d="M512 85.333q17.667 0 30.167 12.5t12.5 30.167v341.333h341.333q17.667 0 30.167 12.5t12.5 30.167-12.5 30.167-30.167 12.5h-341.333v341.333q0 17.667-12.5 30.167t-30.167 12.5-30.167-12.5-12.5-30.167v-341.333h-341.333q-17.667 0-30.167-12.5t-12.5-30.167 12.5-30.167 30.167-12.5h341.333v-341.333q0-17.667 12.5-30.167t30.167-12.5z"></path>
</symbol>
<symbol id="icon-minus" viewBox="0 0 1024 1024">
	<title>minus</title>
	<path class="path1" d="M128 469.333h768q17.667 0 30.167 12.5t12.5 30.167-12.5 30.167-30.167 12.5h-768q-17.667 0-30.167-12.5t-12.5-30.167 12.5-30.167 30.167-12.5z"></path>
</symbol>
<symbol id="icon-check" viewBox="0 0 1024 1024">
	<title>check</title>
	<path class="path1" d="M896 213.333q18.333 0 30.5 12.167t12.167 30.5q0 18-12.333 30.333l-512 512q-12.333 12.333-30.333 12.333t-30.333-12.333l-256-256q-12.333-12.333-12.333-30.333 0-18.333 12.167-30.5t30.5-12.167q18 0 30.333 12.333l225.667 226 481.667-482q12.333-12.333 30.333-12.333z"></path>
</symbol>
<symbol id="icon-cross" viewBox="0 0 1024 1024">
	<title>cross</title>
	<path class="path1" d="M810.667 170.667q18.333 0 30.5 12.167t12.167 30.5q0 18-12.333 30.333l-268.667 268.333 268.667 268.333q12.333 12.333 12.333 30.333 0 18.333-12.167 30.5t-30.5 12.167q-18 0-30.333-12.333l-268.333-268.667-268.333 268.667q-12.333 12.333-30.333 12.333-18.333 0-30.5-12.167t-12.167-30.5q0-18 12.333-30.333l268.667-268.333-268.667-268.333q-12.333-12.333-12.333-30.333 0-18.333 12.167-30.5t30.5-12.167q18 0 30.333 12.333l268.333 268.667 268.333-268.667q12.333-12.333 30.333-12.333z"></path>
</symbol>
<symbol id="icon-inbox" viewBox="0 0 1024 1024">
	<title>inbox</title>
	<path class="path1" d="M512 42.667q17.667 0 30.167 12.5t12.5 30.167v494.333l140.333-140.667q12.333-12.333 30.333-12.333 18.333 0 30.5 12.167t12.167 30.5q0 18-12.333 30.333l-213.333 213.333q-12.333 12.333-30.333 12.333t-30.333-12.333l-213.333-213.333q-12.333-13-12.333-30.333 0-17.667 12.5-30.167t30.167-12.5q18 0 30.333 12.333l140.333 140.667v-494.333q0-17.667 12.5-30.167t30.167-12.5zM938.667 640q17.667 0 30.167 12.5t12.5 30.167v170.667q0 53.333-37 90.333-37.667 37.667-90 37.667h-683.667q-52.333 0-90.667-37.333-37.333-38.333-37.333-90.667v-170.667q0-17.667 12.5-30.167t30.167-12.5 30.167 12.5 12.5 30.167v170.667q0 17.667 12.5 30.167t30.167 12.5h683.667q17.333 0 29.5-12.5t12.167-30.167v-170.667q0-17.667 12.5-30.167t30.167-12.5z"></path>
</symbol>
<symbol id="icon-outbox" viewBox="0 0 1024 1024">
	<title>outbox</title>
	<path class="path1" d="M512 44.667q18 0 30.333 12.333l213.333 213.333q12.333 12.333 12.333 30.333 0 18.333-12.167 30.5t-30.5 12.167q-18 0-30.333-12.333l-140.333-140.667v494.333q0 17.667-12.5 30.167t-30.167 12.5-30.167-12.5-12.5-30.167v-494.333l-140.333 140.667q-13 12.333-30.333 12.333-17.667 0-30.167-12.5t-12.5-30.167q0-17.333 12.333-30.333l213.333-213.333q12.333-12.333 30.333-12.333zM938.667 642q17.667 0 30.167 12.5t12.5 30.167v170.667q0 53.333-37 90.333-37.667 37.667-90 37.667h-683.667q-52.333 0-90.667-37.333-37.333-38.333-37.333-90.667v-170.667q0-17.667 12.5-30.167t30.167-12.5 30.167 12.5 12.5 30.167v170.667q0 17.667 12.5 30.167t30.167 12.5h683.667q17.333 0 29.5-12.5t12.167-30.167v-170.667q0-17.667 12.5-30.167t30.167-12.5z"></path>
</symbol>
<symbol id="icon-file" viewBox="0 0 1024 1024">
	<title>file</title>
	<path class="path1" d="M213.333 0h426.667l298.667 298.667v597.333q0 53-37.5 90.5t-90.5 37.5h-597.333q-53 0-90.5-37.5t-37.5-90.5v-768q0-53 37.5-90.5t90.5-37.5zM554.667 384v-298.667h-341.333q-18 0-30.333 12.333t-12.333 30.333v768q0 18 12.333 30.333t30.333 12.333h597.333q18 0 30.333-12.333t12.333-30.333v-512h-298.667zM818 298.667l-178-178v178h178z"></path>
</symbol>
<symbol id="icon-file-add" viewBox="0 0 1024 1024">
	<title>file-add</title>
	<path class="path1" d="M213.333 0h426.667l298.667 298.667v597.333q0 53-37.5 90.5t-90.5 37.5h-597.333q-53 0-90.5-37.5t-37.5-90.5v-768q0-53 37.5-90.5t90.5-37.5zM512 469.333q17.667 0 30.167 12.5t12.5 30.167v85.333h85.333q17.667 0 30.167 12.5t12.5 30.167-12.5 30.167-30.167 12.5h-85.333v85.333q0 17.667-12.5 30.167t-30.167 12.5-30.167-12.5-12.5-30.167v-85.333h-85.333q-17.667 0-30.167-12.5t-12.5-30.167 12.5-30.167 30.167-12.5h85.333v-85.333q0-17.667 12.5-30.167t30.167-12.5zM554.667 384v-298.667h-341.333q-18 0-30.333 12.333t-12.333 30.333v768q0 18 12.333 30.333t30.333 12.333h597.333q18 0 30.333-12.333t12.333-30.333v-512h-298.667zM818 298.667l-178-178v178h178z"></path>
</symbol>
<symbol id="icon-file-subtract" viewBox="0 0 1024 1024">
	<title>file-subtract</title>
	<path class="path1" d="M213.333 0h426.667l298.667 298.667v597.333q0 53-37.5 90.5t-90.5 37.5h-597.333q-53 0-90.5-37.5t-37.5-90.5v-768q0-53 37.5-90.5t90.5-37.5zM384 597.333h256q17.667 0 30.167 12.5t12.5 30.167-12.5 30.167-30.167 12.5h-256q-17.667 0-30.167-12.5t-12.5-30.167 12.5-30.167 30.167-12.5zM554.667 384v-298.667h-341.333q-18 0-30.333 12.333t-12.333 30.333v768q0 18 12.333 30.333t30.333 12.333h597.333q18 0 30.333-12.333t12.333-30.333v-512h-298.667zM818 298.667l-178-178v178h178z"></path>
</symbol>
<symbol id="icon-open" viewBox="0 0 1024 1024">
	<title>open</title>
	<path class="path1" d="M170.667 42.667h298.667q17.667 0 30.167 12.5t12.5 30.167-12.5 30.167-30.167 12.5h-298.667q-17.667 0-30.167 12.5t-12.5 30.167v682.667q0 17.667 12.5 30.167t30.167 12.5h682.667q17.667 0 30.167-12.5t12.5-30.167v-298.667q0-17.667 12.5-30.167t30.167-12.5 30.167 12.5 12.5 30.167v298.667q0 53-37.5 90.5t-90.5 37.5h-682.667q-53 0-90.5-37.5t-37.5-90.5v-682.667q0-53 37.5-90.5t90.5-37.5zM682.667 42.667h256q17.667 0 30.167 12.5t12.5 30.167v256q0 17.667-12.5 30.167t-30.167 12.5-30.167-12.5-12.5-30.167v-153l-354 354q-12.333 12.333-30 12.333-18.333 0-30.5-12.167t-12.167-30.5q0-17.667 12.333-30l354-354h-153q-17.667 0-30.167-12.5t-12.5-30.167 12.5-30.167 30.167-12.5z"></path>
</symbol>
</defs>
</svg>
