<?xml version="1.0" encoding="UTF-8" standalone="no"?>
<svg width="612px" height="150px" viewBox="0 0 612 150" version="1.1" xmlns="http://www.w3.org/2000/svg" xmlns:xlink="http://www.w3.org/1999/xlink" xmlns:sketch="http://www.bohemiancoding.com/sketch/ns">
    <!-- Generator: Sketch 3.5 (25232) - http://www.bohemiancoding.com/sketch -->
    <title>Page-1</title>
    <desc>Created with Sketch.</desc>
    <defs></defs>
    <g id="Wireform-/-Mockup" stroke="none" stroke-width="1" fill="none" fill-rule="evenodd" sketch:type="MSPage">
        <g id="Workboard" sketch:type="MSArtboardGroup" transform="translate(-6011.000000, -1643.000000)" fill="#0779B5">
            <g id="Page-1" sketch:type="MSLayerGroup" transform="translate(6011.000000, 1643.000000)">
                <path d="M177.3,34.9 C166.7,34.9 157.9,36.4 146.7,46.7 L143.6,34.9 L119.5,34.9 L119.5,146.4 L148.1,146.4 L148.1,68.7 C154.7,62.5 162.6,61.4 169.2,61.4 C171.4,61.4 174.3,61.7 177.3,62.6 L177.3,34.9 L177.3,34.9 L177.3,34.9 Z" id="Fill-1" sketch:type="MSShapeGroup"></path>
                <path d="M301.8,34.9 L272.7,34.9 L245.8,107.3 L219.9,34.9 L188.6,34.9 L234,146.4 L255.5,146.4 L301.8,34.9 L301.8,34.9 Z" id="Fill-3" sketch:type="MSShapeGroup"></path>
                <path d="M485.3,123.6 L485.3,146.5 L465.2,146.5 C443.4,146.5 434.3,134 434.3,116.9 L434.3,57.9 L417.8,57.9 L417.8,34.8 L434.3,34.8 L434.3,9.1 L462.6,0.6 L462.6,34.8 L488.7,34.8 L488.7,58 L462.6,58 L462.6,108.4 C462.6,119 466.5,123.6 476.6,123.6 L485.3,123.6 L485.3,123.6 L485.3,123.6 Z" id="Fill-5" sketch:type="MSShapeGroup"></path>
                <path d="M66.9,119.3 L66.9,93.9 L50.6,94.4 C35.2,94.9 28.4,100.7 28.4,110.2 C28.4,119.4 34.7,126.4 46.6,126.4 C56.4,126.4 63,122.7 66.9,119.3 M97.4,146.5 L71.2,146.5 L68.9,136.6 C61.6,143.2 51.4,148.9 36.6,148.9 C16,148.9 0.1,134.3 0.1,112.4 C0,89.2 18.2,76 46.7,75.1 L66.9,74.4 L66.9,71.9 C66.9,58.4 57.1,55.2 45.4,55.2 C35.4,55.2 14,56.3 14,56.3 L14,35 C14,35 33.9,33.9 51.1,33.9 C78.7,33.9 95.4,44.5 95.4,73.7 L95.4,117 C95.3,133 95.8,141.3 97.4,146.5" id="Fill-7" sketch:type="MSShapeGroup"></path>
                <path d="M611.5,90.5 C611.5,52.6 586.8,31.5 555.6,31.5 C525.3,31.5 499.7,53.3 499.7,91.5 C499.7,124.4 520.4,150 555.3,150 C589.7,149.9 611.5,124.2 611.5,90.5 M582.5,90.7 C582.5,111.6 573.6,128.2 555.9,128.2 C538.7,128.2 528.5,112.4 528.5,90.7 C528.5,69.9 537.2,53.7 555.1,53.7 C572.5,53.7 582.5,69.2 582.5,90.7" id="Fill-9" sketch:type="MSShapeGroup"></path>
                <path d="M371.6,119.3 L371.6,93.9 L355.2,94.4 C339.9,94.9 333,100.7 333,110.2 C333,119.4 339.3,126.4 351.2,126.4 C361.1,126.4 367.9,122.7 371.6,119.3 M402.2,146.5 L376,146.5 L373.7,136.6 C366.4,143.2 356.2,148.9 341.4,148.9 C320.8,148.9 304.8,134.3 304.8,112.4 C304.8,89.2 323,76.1 351.5,75.1 L371.7,74.4 L371.7,71.9 C371.7,58.4 361.9,55.2 350.2,55.2 C340.2,55.2 318.8,56.3 318.8,56.3 L318.8,35 C318.8,35 338.7,33.9 355.9,33.9 C383.5,33.9 400.2,44.5 400.2,73.7 L400.2,117 C400.1,133 400.5,141.3 402.2,146.5" id="Fill-11" sketch:type="MSShapeGroup"></path>
            </g>
        </g>
    </g>
</svg>