<?xml version="1.0" encoding="UTF-8" standalone="no"?>
<svg width="612px" height="580px" viewBox="0 0 612 580" version="1.1" xmlns="http://www.w3.org/2000/svg" xmlns:xlink="http://www.w3.org/1999/xlink" xmlns:sketch="http://www.bohemiancoding.com/sketch/ns">
    <!-- Generator: Sketch 3.5 (25232) - http://www.bohemiancoding.com/sketch -->
    <title>Bank-ID</title>
    <desc>Created with Sketch.</desc>
    <defs></defs>
    <g id="Wireform-/-Mockup" stroke="none" stroke-width="1" fill="none" fill-rule="evenodd" sketch:type="MSPage">
        <g id="Workboard" sketch:type="MSArtboardGroup" transform="translate(-5177.000000, -1213.000000)">
            <g id="Bank-ID" sketch:type="MSLayerGroup" transform="translate(5177.000000, 1213.000000)">
                <path d="M193.1,302.7 L218.3,141.7 L190.8,141.7 C178.2,141.7 161.6,134.8 156.4,121.6 C154.7,117 151.2,101.5 172.4,86.6 C179.8,81.4 185,75.7 185.6,71.1 C186.7,66.5 185.6,62.5 182.2,59.1 C178.2,55.1 169,52.2 157.6,52.2 C138.1,52.2 124.4,63.7 123.2,71.7 C122.1,78 127.2,82.6 131.2,85.5 C143.2,94.7 146.1,107.8 138.6,120.5 C130.6,133.1 114,141.7 96.2,141.7 L68.2,141.7 C65.9,157.2 28.1,397.8 25.2,416.8 L176.5,416.8 C177.1,408.7 183.9,362.9 193.1,302.7" id="Fill-1" fill="#469CBF" sketch:type="MSShapeGroup"></path>
                <path d="M50.4,562.3 C63,562.3 69.9,557.1 71.6,546.8 C72.7,538.2 68.2,532.5 56.1,532.5 L44.1,532.5 L39.5,562.3 L50.4,562.3 L50.4,562.3 Z M57.3,516.5 C69.3,516.5 75.1,510.2 76.2,502.7 C77.3,494.7 73.9,488.9 61.9,488.9 L51,488.9 L46.4,516.5 L57.3,516.5 L57.3,516.5 Z M16.6,472.3 L78.5,472.3 C104.9,472.3 111.2,485.5 109.4,498.1 C107.7,507.8 101.4,515.3 89.3,519.9 C104.2,525.6 109.9,534.2 107.6,548 C104.7,565.2 89.8,577.8 70.4,577.8 L0,577.8 L16.6,472.3 L16.6,472.3 Z" id="Fill-3" fill="#215970" sketch:type="MSShapeGroup"></path>
                <path d="M166.2,542.8 C157.6,548 141.6,547.4 139.8,558.3 C139.2,563.5 142.1,567.5 147.3,567.5 C152.5,567.5 158.8,565.2 163.3,561.8 C162.7,560.1 163.3,557.8 163.9,554.4 L166.2,542.8 L166.2,542.8 Z M193.7,578.9 C177.7,580 169.6,578.3 166.2,571.5 C157.6,576.7 148.4,579.5 138.1,579.5 C119.8,579.5 113.5,570.3 115.2,559.4 C115.8,554.2 118.6,549.7 123.8,545.6 C133.5,537 158.8,535.9 168.5,529 C169.1,521.6 166.2,518.7 157,518.7 C146.1,518.7 137.5,522.1 122,532.5 L125.4,508.4 C138.6,498.7 151.2,494.6 166.1,494.6 C185,494.6 201.6,502.1 198.2,522.7 L194.8,546.2 C193.7,554.2 193.7,557.1 202.8,557.1 L193.7,578.9 L193.7,578.9 Z" id="Fill-6" fill="#215970" sketch:type="MSShapeGroup"></path>
                <path d="M224.1,496.4 L256.2,496.4 L254.5,507.3 C264.8,498.7 272.3,495.3 282.6,495.3 C300.4,495.3 309,506.2 306.1,524.5 L297.5,578.4 L265.4,578.4 L272.3,533.7 C273.4,525.7 271.2,521.7 264.9,521.7 C259.7,521.7 255.2,524.6 250.6,530.3 L243.2,577.9 L211.1,577.9 L224.1,496.4 L224.1,496.4 Z" id="Fill-8" fill="#215970" sketch:type="MSShapeGroup"></path>
                <path d="M331.2,472.3 L363.3,472.3 L355.3,524.4 L386.2,496.3 L425.7,496.3 L386.2,531.3 L417.7,578.3 L377,578.3 L352.4,540.5 L351.8,540.5 L346.1,578.3 L314,578.3 L331.2,472.3 L331.2,472.3 Z" id="Fill-10" fill="#215970" sketch:type="MSShapeGroup"></path>
                <path d="M166.2,542.8 C157.6,548 141.6,547.4 139.8,558.3 C139.2,563.5 142.1,567.5 147.3,567.5 C152.5,567.5 158.8,565.2 163.3,561.8 C162.7,560.1 163.3,557.8 163.9,554.4 L166.2,542.8 L166.2,542.8 Z M193.7,578.9 C177.7,580 169.6,578.3 166.2,571.5 C157.6,576.7 148.4,579.5 138.1,579.5 C119.8,579.5 113.5,570.3 115.2,559.4 C115.8,554.2 118.6,549.7 123.8,545.6 C133.5,537 158.8,535.9 168.5,529 C169.1,521.6 166.2,518.7 157,518.7 C146.1,518.7 137.5,522.1 122,532.5 L125.4,508.4 C138.6,498.7 151.2,494.6 166.1,494.6 C185,494.6 201.6,502.1 198.2,522.7 L194.8,546.2 C193.7,554.2 193.7,557.1 202.8,557.1 L193.7,578.9 L193.7,578.9 Z" id="Fill-15" fill="#215970" sketch:type="MSShapeGroup"></path>
                <path d="M224.1,496.4 L256.2,496.4 L254.5,507.3 C264.8,498.7 272.3,495.3 282.6,495.3 C300.4,495.3 309,506.2 306.1,524.5 L297.5,578.4 L265.4,578.4 L272.3,533.7 C273.4,525.7 271.2,521.7 264.9,521.7 C259.7,521.7 255.2,524.6 250.6,530.3 L243.2,577.9 L211.1,577.9 L224.1,496.4 L224.1,496.4 Z" id="Fill-17" fill="#215970" sketch:type="MSShapeGroup"></path>
                <path d="M331.2,472.3 L363.3,472.3 L355.3,524.4 L386.2,496.3 L425.7,496.3 L386.2,531.3 L417.7,578.3 L377,578.3 L352.4,540.5 L351.8,540.5 L346.1,578.3 L314,578.3 L331.2,472.3 L331.2,472.3 Z" id="Fill-19" fill="#215970" sketch:type="MSShapeGroup"></path>
                <path d="M444.7,472.3 L481.9,472.3 L465.3,577.7 L428.1,577.7 L444.7,472.3 L444.7,472.3 Z" id="Fill-21" fill="#469CBF" sketch:type="MSShapeGroup"></path>
                <path d="M534.1,553.1 C551.9,553.1 562.2,544.5 565,525.6 C567.3,511.8 562.7,498.1 543.2,498.1 L532.9,498.1 L524.3,553.7 L534.1,553.1 L534.1,553.1 Z M499.7,472.3 L552.4,472.3 C593.1,472.3 605.1,502.1 601.1,526.7 C597.7,550.8 578.2,578.3 542.6,578.3 L483.6,578.3 L499.7,472.3 L499.7,472.3 Z" id="Fill-23" fill="#469CBF" sketch:type="MSShapeGroup"></path>
                <path d="M395.4,0.7 C535.2,0.7 632.1,62 608,215 C588.5,338.8 489.4,416.7 367.3,416.7 L338.6,416.7 L358.1,291.8 C407.4,291.2 448.6,267.7 457.2,213.9 C466.4,156 437.1,130.8 383.3,130.2 L343.2,130.2 C334,130.2 322,125 319.1,117 C318,114.7 316.2,105.5 331.1,94.7 C336.8,90.7 346.6,82.7 348.9,72.4 C350.6,64.4 348.3,56.4 342,50.6 C335.1,44.3 323.7,40.9 309.3,40.9 C284.7,40.9 266.3,55.8 264,69.6 L264,72.5 C264,78.2 266.3,86.3 276,93.7 C279.4,96.6 283.4,100.6 283.4,105.7 C283.4,108 282.8,110.9 280.5,113.7 C274.8,123.4 261,129.7 246.7,129.7 L220.3,129.7 L241.8,0.7 L395.4,0.7 L395.4,0.7 L395.4,0.7 Z" id="Fill-25" fill="#215970" sketch:type="MSShapeGroup"></path>
            </g>
        </g>
    </g>
</svg>