<?xml version="1.0" encoding="utf-8"?>
<!-- Generator: Adobe Illustrator 18.0.0, SVG Export Plug-In . SVG Version: 6.00 Build 0)  -->
<!DOCTYPE svg PUBLIC "-//W3C//DTD SVG 1.1//EN" "http://www.w3.org/Graphics/SVG/1.1/DTD/svg11.dtd">
<svg version="1.1" id="Layer_1" xmlns:sketch="http://www.bohemiancoding.com/sketch/ns"
	 xmlns="http://www.w3.org/2000/svg" xmlns:xlink="http://www.w3.org/1999/xlink" x="0px" y="0px" viewBox="0 0 42 42"
	 enable-background="new 0 0 42 42" xml:space="preserve">
<title>facebook</title>
<desc>Created with Sketch.</desc>
<g id="Wireform-_x2F_-Mockup" sketch:type="MSPage">
	<g id="Workboard" transform="translate(-4832.000000, -4018.000000)" sketch:type="MSArtboardGroup">
		<g id="Footer" transform="translate(3895.000000, 3853.000000)" sketch:type="MSLayerGroup">
			<g id="social-media-icons" transform="translate(938.000000, 165.000000)" sketch:type="MSShapeGroup">
				<g id="facebook" transform="translate(0.000000, 1.000000)">
					<g id="Stroke-1">
						<path fill="#5A5A5A" d="M20,41C8.4,41-1,31.6-1,20s9.4-21,21-21s21,9.4,21,21S31.5,41,20,41z M20,1.1C9.5,1.1,1,9.6,1,20
							s8.5,19,19,19s19-8.5,19-19S30.4,1.1,20,1.1z"/>
					</g>
					<path id="Fill-3" fill="#5A5A5A" d="M17.1,31.3h4.5V20h3.1l0.3-3.8h-3.5v-2.1c0-0.9,0.2-1.2,1-1.2h2.4V9H22
						c-3.3,0-4.8,1.5-4.8,4.3v3h-2.3v3.8h2.3V31.3z"/>
				</g>
			</g>
		</g>
	</g>
</g>
</svg>
