<?xml version="1.0" encoding="utf-8"?>
<!-- Generator: Adobe Illustrator 18.0.0, SVG Export Plug-In . SVG Version: 6.00 Build 0)  -->
<!DOCTYPE svg PUBLIC "-//W3C//DTD SVG 1.1//EN" "http://www.w3.org/Graphics/SVG/1.1/DTD/svg11.dtd">
<svg version="1.1" id="Layer_1" xmlns:sketch="http://www.bohemiancoding.com/sketch/ns"
	 xmlns="http://www.w3.org/2000/svg" xmlns:xlink="http://www.w3.org/1999/xlink" x="0px" y="0px" viewBox="0 0 42 42"
	 enable-background="new 0 0 42 42" xml:space="preserve">
<title>instagram</title>
<desc>Created with Sketch.</desc>
<g id="Wireform-_x2F_-Mockup" sketch:type="MSPage">
	<g id="Workboard" transform="translate(-4888.000000, -4017.000000)" sketch:type="MSArtboardGroup">
		<g id="Footer" transform="translate(3895.000000, 3853.000000)" sketch:type="MSLayerGroup">
			<g id="social-media-icons" transform="translate(938.000000, 165.000000)" sketch:type="MSShapeGroup">
				<g id="instagram" transform="translate(56.000000, 0.000000)">
					<g id="Stroke-1">
						<path fill="#4A4A4A" d="M20,41C8.4,41-1,31.6-1,20c0-11.6,9.4-21,21-21c11.6,0,21,9.4,21,21C40.9,31.6,31.5,41,20,41z M20,1.1
							C9.5,1.1,1,9.6,1,20s8.5,19,19,19c10.5,0,19-8.5,19-19S30.4,1.1,20,1.1z"/>
					</g>
					<path id="Fill-3" fill="#5A5A5A" d="M25.3,14.6v-2.1c0-0.1,0.1-0.2,0.2-0.2h2.1c0.1,0,0.2,0.1,0.2,0.2v2.1
						c0,0.1-0.1,0.2-0.2,0.2h-2.1C25.3,14.8,25.3,14.7,25.3,14.6L25.3,14.6z M24.3,20.4c0,2.3-1.9,4.1-4.1,4.1S16,22.6,16,20.4
						c0-1.2,0.5-2.3,1.4-3.1c0.3-0.3,0.6-0.5,1-0.7c1.1-0.5,2.3-0.5,3.4,0c0.4,0.2,0.7,0.4,1,0.7C23.8,18,24.3,19.2,24.3,20.4
						L24.3,20.4z M28.6,26c0,1.6-1.3,3-3,3h-11c-1.6,0-2.9-1.3-2.9-3v-8.9h3.7c-0.7,1-1,2.1-1,3.2c0,3.2,2.6,5.8,5.8,5.8
						c3.2,0,5.8-2.6,5.8-5.8c0-1.2-0.4-2.3-1-3.2h3.7V26z M30.4,14.1c0-2.4-2-4.4-4.4-4.4H15.4c-5.1,0-5.5,4.3-5.5,4.4l0,11.9
						c0,2.6,2.1,4.8,4.8,4.8h11c2.6,0,4.8-2.1,4.8-4.8L30.4,14.1z"/>
				</g>
			</g>
		</g>
	</g>
</g>
</svg>
