<?xml version="1.0" encoding="UTF-8" standalone="no"?>
<svg width="127px" height="46px" viewBox="0 0 127 46" version="1.1" xmlns="http://www.w3.org/2000/svg" xmlns:xlink="http://www.w3.org/1999/xlink" xmlns:sketch="http://www.bohemiancoding.com/sketch/ns">
    <!-- Generator: Sketch 3.4 (15588) - http://www.bohemiancoding.com/sketch -->
    <title>Logo</title>
    <desc>Created with Sketch.</desc>
    <defs></defs>
    <g id="UI-Elements" stroke="none" stroke-width="1" fill="none" fill-rule="evenodd" sketch:type="MSPage">
        <g id="UI-KIT-1v.2" sketch:type="MSArtboardGroup" transform="translate(-71.000000, -1055.000000)" fill="#D8523D">
            <g id="Masthead" sketch:type="MSLayerGroup" transform="translate(-204.000000, 1033.000000)">
                <g id="Menubar-2" transform="translate(203.500000, 0.000000)" sketch:type="MSShapeGroup">
                    <path d="M80.5642264,30.3676188 C80.0783438,26.2558369 84.7288354,25.4664309 87.6801223,26.2081641 C89.270661,26.6077746 90.6577105,27.5072488 91.6391656,28.8252624 C92.9480032,30.5856519 90.0513954,32.4841524 89.196602,33.7257493 C88.7342522,34.3973754 89.1896806,35.29054 90.0410133,34.8607834 C92.3970594,33.6710658 94.4914764,31.7704621 94.746184,29.0103452 C95.0147345,26.0959927 92.0046158,24.3278915 89.7108623,23.4732858 C84.396608,21.49276 77.9866954,24.4078136 77.5444176,30.4258077 C77.0142381,37.6356227 86.7201235,38.239946 90.1413737,42.4323511 C93.9502225,47.1000823 84.1176754,49.0126042 81.405177,48.9565185 C78.290545,48.8934221 71.4964944,46.5974143 74.8236136,42.3475214 C75.23959,41.8161096 74.6609605,41.3912605 74.1646958,41.7200628 C72.2903795,42.9588554 71.2936973,45.045944 72.4468033,47.1722926 C73.8123964,49.691241 76.6390979,50.962984 79.3425985,51.3345516 C84.4976605,52.0440356 95.08118,49.7396149 93.400663,42.3559343 C91.9582423,36.0168496 81.3678014,37.1574922 80.5642264,30.3676188 L80.5642264,30.3676188 Z M186.503242,62.8103842 C185.87201,63.2948243 185.068435,63.6734027 184.270397,63.7126626 C183.066765,63.7687483 184.026072,62.0146685 184.215026,61.6522147 C185.012372,60.1505205 186.283142,58.8878915 187.409946,57.6378817 C188.330493,56.6164212 189.273189,55.6713773 190.244262,54.7782128 C189.724464,57.9330326 188.770695,61.0682225 186.500474,62.8103842 L186.503242,62.8103842 L186.503242,62.8103842 Z M173.126936,62.8103842 C172.495012,63.2948243 171.692129,63.6734027 170.893399,63.7126626 C169.689767,63.7687483 170.649074,62.0146685 170.838028,61.6522147 C171.635374,60.1505205 172.906836,58.8878915 174.032256,57.6378817 C174.953495,56.6164212 175.89619,55.6713773 176.867263,54.7782128 C176.348158,57.9330326 175.393696,61.0682225 173.124168,62.8103842 L173.126936,62.8103842 L173.126936,62.8103842 Z M162.079683,62.7206471 C161.411767,63.8507736 159.293125,66.4335195 157.863163,64.9164017 C156.968918,63.9671514 157.6133,61.9712021 158.092954,60.9995176 C158.833544,59.4999265 160.62688,58.1671904 161.840202,57.0987581 C162.57041,56.4551748 163.320691,55.8347269 164.071663,55.2170833 C163.870942,57.8033345 163.517258,60.2928379 162.079683,62.7206471 L162.079683,62.7206471 Z M132.865819,36.6828671 C133.234038,36.6968885 133.601564,36.6968885 133.968399,36.6968885 C133.618176,37.2949022 133.261031,37.8901115 132.908039,38.4846198 C132.873432,37.8816987 132.85959,37.2794786 132.866511,36.6849703 L132.865819,36.6828671 L132.865819,36.6828671 Z M133.231961,32.1574533 C133.387693,31.2053988 135.413588,23.6156032 137.293441,25.6732469 C138.317809,26.7942595 136.858777,30.2757785 136.452491,31.5180765 C136.230314,32.1953111 135.961071,32.855019 135.662758,33.5049119 C134.97131,33.4418155 134.275709,33.3941427 133.574571,33.3717084 C133.409149,33.3717084 133.239575,33.357687 133.067924,33.3506763 C133.116374,32.9391475 133.170361,32.5374338 133.231961,32.1560511 L133.231961,32.1574533 L133.231961,32.1574533 Z M104.44584,40.5955448 C103.299656,43.2764406 101.451641,45.7294883 99.1253566,47.4758564 C98.4892796,47.9539869 97.8241326,48.1769275 97.2275075,47.5389528 C96.3561027,46.6121368 97.5237436,44.414279 97.9307222,43.5077941 C98.4256026,42.4029061 99.0201513,41.307132 99.7738922,40.3620881 C101.242614,38.5196733 103.424241,38.2273267 105.578182,37.8627697 C105.738759,37.8347269 105.892414,37.7639187 106.029458,37.6636656 C105.685464,37.914649 105.402378,38.6619908 105.198889,39.0363627 C104.922725,39.541835 104.672862,40.0620297 104.44584,40.5927405 L104.44584,40.5955448 L104.44584,40.5955448 Z M196.936568,48.3549995 C195.782077,48.7861583 194.687803,49.3112605 193.643363,49.9085731 C193.953442,47.0327795 194.258676,44.1660998 195.271278,41.5020297 C195.820145,40.5366548 196.324715,39.5523511 196.773222,38.5575312 C197.418297,37.1238408 195.603505,36.563685 194.777781,37.6180959 C193.540927,39.1983102 192.73043,40.9250482 192.164259,42.7415234 C190.842271,44.7767327 189.210896,46.6661193 187.544222,47.9224387 C186.882535,48.4216013 186.178629,48.6529548 185.553626,47.9925458 C184.644153,47.0292741 185.758499,44.8356227 186.173092,43.87165 C187.578137,40.6060609 189.846281,37.8066841 193.738879,38.1670346 C194.713412,38.2567717 195.37233,36.5678915 194.174235,36.4837629 C189.744536,36.1717863 186.656898,38.5119616 184.624773,42.2893326 C183.76029,43.8968885 182.511669,46.6310658 182.977479,48.5884562 C182.036168,48.971241 181.132925,49.4136169 180.266365,49.9092741 C180.576444,47.0334806 180.881678,44.1668009 181.893587,41.5027308 C182.443147,40.5373559 182.948409,39.5530521 183.396224,38.5582323 C184.041299,37.1245419 182.226507,36.5643861 181.400783,37.618797 C180.163928,39.1990112 179.353432,40.9257493 178.787261,42.7422245 C177.46458,44.7774338 175.833898,46.6668204 174.167223,47.9231398 C173.616972,48.3381738 173.03765,48.5597123 172.499857,48.2449314 C172.458329,48.1678136 172.39396,48.1138311 172.298444,48.0977065 C172.256916,48.063354 172.217464,48.0346101 172.176627,47.9925458 C171.267847,47.0292741 172.381501,44.8349216 172.796093,43.87165 C174.201138,40.6060609 176.469283,37.8066841 180.36188,38.1670346 C181.336414,38.2567717 181.995332,36.5678915 180.797929,36.4837629 C176.36823,36.1717863 173.279207,38.5119616 171.246391,42.2893326 C170.277394,44.0903842 168.824591,47.3104036 169.848959,49.2621855 C169.461361,49.4886315 169.079299,49.7227892 168.710388,49.9723705 C168.125529,50.3691768 167.476994,50.7786023 166.8776,51.2385049 C166.957889,49.9877941 167.064478,48.7363822 167.260354,47.4849703 C167.755234,44.3245419 168.250807,41.1585049 168.209971,37.9483004 C168.189206,36.3645808 165.95913,37.0796733 165.683658,38.200686 C165.352123,39.5523511 162.456207,50.8318837 159.827458,47.7191281 C158.769175,46.4684173 159.25575,43.7980375 159.419787,42.3285925 C159.601128,40.6901894 160.033716,39.0805302 160.365943,37.4687678 C160.696786,35.8619129 158.789939,35.8808418 157.986364,36.7501699 C157.013215,37.8031787 156.285083,39.0924484 155.524421,40.3046003 C154.946483,41.2265088 153.997559,43.3023803 152.846529,43.7980375 C152.832686,43.2680278 152.853451,42.5767717 152.853451,42.4526821 C152.853451,41.7943764 152.853451,41.1388749 152.867293,40.4826724 C152.867293,39.9779012 152.811922,39.4703257 152.839608,38.9669567 C152.983573,38.5484173 152.9019,38.1235682 152.433321,37.8683783 C150.235775,36.6807639 147.690775,39.0763238 146.604115,40.8822829 C146.344562,41.3148437 146.111311,41.7621271 145.888441,42.215019 C146.014411,40.4994981 146.125846,38.782575 146.125846,37.0600434 C146.125846,35.5422245 144.203771,36.2005302 143.713044,37.0039577 C142.315612,39.2880473 141.237258,41.7207639 139.951261,44.0651456 C139.341485,45.1756422 137.870686,48.1369664 136.237235,47.5697999 C135.628151,47.3587775 135.158188,46.6254572 134.844648,46.0954474 C134.061838,44.7704231 133.549654,43.1467425 133.239575,41.4200044 C134.202342,39.8299752 135.181721,38.2441524 136.077351,36.6183686 C138.159309,36.484464 140.230885,36.2173559 142.332224,36.0434903 C143.416116,35.9530521 144.312438,34.0328184 142.848561,34.0475409 C141.057301,34.0692741 139.306186,33.8757785 137.550918,33.6899947 C138.14685,32.3635682 138.654189,30.9957785 139.018255,29.5634903 C139.502061,27.6621855 140.227425,24.5269956 137.867918,23.6611729 C134.80312,22.5345516 132.568199,26.8559538 131.758394,29.0362848 C131.272512,30.3430813 130.894603,31.759946 130.632974,33.2328963 C128.777345,33.1690989 126.85804,33.2328963 125.324257,33.9430813 C124.825223,34.1744348 124.340033,35.005204 124.942887,35.4167327 C126.277334,36.3246198 128.389055,36.4900726 130.251604,36.5706957 C130.148476,38.5792644 130.265447,40.6186802 130.640587,42.5662556 C130.695959,42.8635098 129.861929,43.9024971 129.695816,44.1660998 C129.321368,44.7620103 128.918542,45.3474046 128.441657,45.864094 C127.800735,46.5609586 126.448293,47.8803744 125.401776,47.7499752 C124.881287,47.6868788 124.517221,47.027872 124.450775,46.5385244 C124.049334,43.5596733 126.352777,40.666353 126.28564,37.6314163 C126.264876,36.6499168 125.037711,36.5132079 124.42309,37.0544348 C121.620613,39.5278136 120.416981,42.9427308 118.568274,46.021835 C118.649946,43.0303647 120.838494,39.7619713 120.76928,36.8251845 C120.741595,35.7027697 119.488821,35.7686704 118.809139,36.218057 C116.260678,37.9034319 114.609923,40.4328963 113.123205,43.0850482 C113.523954,41.1304621 113.980767,39.187093 114.426505,37.2514358 C114.773268,35.7462362 112.586796,35.7490404 112.132752,36.8966938 C112.091224,36.9962459 112.055232,37.095798 112.01578,37.1981544 C110.924275,39.9842108 109.953894,42.7898973 108.446412,45.390871 C107.925922,46.2889431 106.46343,48.8499557 105.694462,46.9107931 C105.299249,45.91387 105.659855,44.7150385 105.949169,43.7363433 C106.532644,41.7621271 107.66014,40.0606276 108.422879,38.1656325 C108.975899,36.7922342 107.413046,36.110092 106.522954,36.9906373 C106.65446,36.5952332 106.557561,36.1780959 106.05922,35.9874046 C101.97213,34.4415429 98.112063,37.99387 96.3028079,41.3835487 C94.9109135,43.9915331 92.7313632,48.5884562 96.4128582,50.2499947 C98.7522929,51.3065088 101.333285,48.7335779 102.919671,46.8582128 C102.933513,47.0019324 102.961199,47.1421466 102.992345,47.2739479 C103.568206,49.4697026 105.168435,50.7505594 107.342448,49.671611 C108.496246,49.0974338 109.39326,48.0451261 110.131082,46.8778428 C110.025184,47.5690989 109.91721,48.2596539 109.82654,48.9544153 C109.61959,50.5325263 111.406697,50.2275604 112.037929,49.296538 C114.070053,46.2959538 115.520087,42.7450288 117.918354,40.0262751 C117.228982,43.0654182 115.545004,45.9489236 116.869761,49.1275799 C117.19922,49.917687 118.223588,49.7382128 118.687322,49.1696441 C120.331848,47.146353 121.415047,44.6435292 122.776488,42.3818739 C121.89124,45.4525653 121.120888,48.9866646 123.606364,49.7382128 C125.85236,50.4161485 128.236091,48.3641135 129.720041,46.406723 C130.228764,45.8549801 130.702188,45.2639771 131.15554,44.6421271 C131.543831,45.9306957 132.051862,47.1610755 132.703858,48.2827892 C134.384375,51.1768106 137.726029,50.3116889 139.718701,48.2687678 C141.202651,46.7453403 142.236016,44.8727795 143.195323,42.9455351 C143.014674,44.9807444 142.834026,47.0152527 142.816722,49.0609781 C142.802879,50.6453988 144.845386,49.9730716 145.349956,49.1170638 C145.841376,48.2869956 149.316613,39.3504426 150.551391,40.0830619 C150.671824,40.1545711 150.79987,40.1924289 150.9293,40.2155643 C150.674592,41.3008223 150.765955,42.4449703 150.840014,43.546353 C150.860778,43.8674436 150.881542,44.1885341 150.902307,44.5103257 C150.936914,45.0466451 151.044888,45.5465088 151.417951,45.9503257 C151.723877,46.2847366 152.089328,46.4004134 152.533682,46.3541427 C154.192742,46.1837824 155.426137,45.0228087 156.474037,43.5729937 C156.142502,46.5665672 156.432509,49.5187775 158.886839,50.5970249 C161.144601,51.5890404 163.471577,49.621835 164.828172,47.8425166 C164.662059,48.9186607 164.503559,49.9990112 164.385895,51.0884757 C164.344366,51.506314 164.304914,51.919946 164.271691,52.3314747 C160.905813,54.9261388 156.66576,57.847502 155.322316,61.8709489 C154.209354,65.205243 156.078133,68.5844056 159.802541,67.4234319 C163.742896,66.1972585 166.025575,60.8733248 166.462316,57.1036656 C166.614587,55.796168 166.69003,54.4900726 166.762013,53.1860804 C167.510909,52.6953306 168.17744,52.0468399 168.855045,51.4768691 C169.408758,51.0092547 169.965931,50.538836 170.539715,50.0922537 C170.847026,50.3313189 171.231856,50.5262167 171.706664,50.6650288 C173.999033,51.3331495 176.252643,49.1647366 177.784349,47.362984 C177.704061,47.906314 177.631386,48.4545516 177.564249,49.0041914 C177.454198,49.8924484 177.358683,50.8858661 177.245172,51.9227503 C175.241425,53.4517863 173.406561,55.2311047 171.645756,57.1057688 C170.301619,58.5359538 168.857814,60.2367522 168.176056,62.1135195 C167.68602,63.4644835 167.701247,65.7009002 169.524345,66.064055 C174.764541,67.1072488 177.754587,61.2722342 179.014975,57.1443277 C179.507779,55.5290599 179.788096,53.8598097 180.001275,52.1758369 C181.137078,51.3324484 182.332404,50.5444445 183.598329,49.7949995 C183.943707,50.1721758 184.425437,50.4736363 185.084355,50.6650288 C187.376032,51.3331495 189.629641,49.1647366 191.160656,47.362984 C191.081059,47.906314 191.009077,48.4545516 190.941939,49.0041914 C190.831197,49.8924484 190.737066,50.8858661 190.62217,51.9227503 C188.618424,53.4517863 186.782867,55.2311047 185.022754,57.1057688 C183.679309,58.5359538 182.235505,60.2367522 181.553746,62.1135195 C181.063019,63.4644835 181.077554,65.7009002 182.902036,66.064055 C188.142231,67.1072488 191.132278,61.2722342 192.391973,57.1443277 C192.88547,55.5290599 193.165094,53.8598097 193.378966,52.1758369 C194.618589,51.2553306 195.923966,50.3972196 197.321398,49.5860804 C198.102824,49.1324874 197.92356,47.9841329 196.931723,48.3557006 L196.936568,48.3549995 L196.936568,48.3549995 Z" id="Logo"></path>
                </g>
            </g>
        </g>
    </g>
</svg>